<svg xmlns="http://www.w3.org/2000/svg" viewBox="0 0 512 512">
  <defs><linearGradient id="g" x1="0" y1="0" x2="1" y2="1"><stop stop-color="#f7a327"/><stop offset="1" stop-color="#ffd27e"/></linearGradient></defs>
  <rect width="512" height="512" rx="112" fill="#05070d"/>
  <rect x="52" y="52" width="408" height="408" rx="86" fill="none" stroke="url(#g)" stroke-width="12"/>
  <path d="M142 148h64v137c0 45 20 67 54 67 34 0 54-22 54-67V148h64v141c0 82-45 126-118 126-73 0-118-44-118-126V148Z" fill="url(#g)"/>
  <path d="M226 148h76c57 0 91 27 91 70 0 29-16 50-43 60 35 9 55 33 55 67 0 53-39 82-107 82h-72V148Zm64 109h15c19 0 29-9 29-26 0-17-10-25-29-25h-15v51Zm0 112h20c24 0 36-10 36-29 0-20-12-30-36-30h-20v59Z" fill="#eef2fa" opacity=".17"/>
</svg>
